<svg width="44" height="44" viewBox="0 0 44 44" fill="none" xmlns="http://www.w3.org/2000/svg">
<path d="M35.5094 8.30955C31.9669 4.75858 27.2492 2.80554 22.2355 2.80554C11.887 2.80554 3.46612 11.2264 3.46612 21.575C3.46612 24.8807 4.3285 28.1104 5.96871 30.9597L3.30548 40.6826L13.2567 38.0701C15.996 39.5665 19.0819 40.3528 22.2271 40.3528H22.2355C32.5756 40.3528 41.1825 31.932 41.1825 21.5834C41.1825 16.5698 39.0519 11.8605 35.5094 8.30955ZM22.2355 37.1908C19.4286 37.1908 16.6808 36.4383 14.2881 35.0179L13.7217 34.6797L7.82029 36.2269L9.39286 30.4693L9.02085 29.8775C7.45673 27.3918 6.63663 24.5256 6.63663 21.575C6.63663 12.9765 13.6371 5.97605 22.244 5.97605C26.4122 5.97605 30.3267 7.59935 33.2689 10.55C36.2111 13.5007 38.0204 17.4152 38.012 21.5834C38.012 30.1903 30.834 37.1908 22.2355 37.1908ZM30.7917 25.5064C30.3267 25.2697 28.0185 24.1367 27.5874 23.9845C27.1562 23.8239 26.8433 23.7478 26.5305 24.2213C26.2177 24.6947 25.3215 25.7431 25.0425 26.0644C24.7719 26.3772 24.4929 26.4195 24.0279 26.1828C21.2717 24.8046 19.4624 23.7224 17.6446 20.6027C17.1627 19.7741 18.1266 19.8333 19.0228 18.0409C19.1749 17.7281 19.0988 17.4575 18.9805 17.2208C18.8621 16.9841 17.9236 14.6759 17.5347 13.7375C17.1543 12.8244 16.7653 12.9512 16.4779 12.9343C16.2073 12.9174 15.8945 12.9174 15.5817 12.9174C15.2689 12.9174 14.7616 13.0357 14.3304 13.5007C13.8992 13.9742 12.6902 15.1071 12.6902 17.4152C12.6902 19.7234 14.3727 21.9554 14.6009 22.2682C14.8377 22.5811 17.9067 27.3157 22.616 29.3533C25.592 30.6384 26.7588 30.7483 28.2468 30.5285C29.1515 30.3932 31.02 29.3955 31.4089 28.2964C31.7978 27.1973 31.7978 26.2589 31.6794 26.0644C31.5695 25.853 31.2567 25.7347 30.7917 25.5064Z" fill="white"/>
</svg>
