<svg width="25" height="17" viewBox="0 0 25 17" fill="none" xmlns="http://www.w3.org/2000/svg">
<path d="M23.8566 2.77444C23.5839 1.74797 22.7807 0.939545 21.7609 0.665196C19.9124 0.166672 12.5 0.166672 12.5 0.166672C12.5 0.166672 5.08767 0.166672 3.2391 0.665196C2.21927 0.939588 1.41606 1.74797 1.14344 2.77444C0.648132 4.63499 0.648132 8.51684 0.648132 8.51684C0.648132 8.51684 0.648132 12.3987 1.14344 14.2592C1.41606 15.2857 2.21927 16.0605 3.2391 16.3348C5.08767 16.8333 12.5 16.8333 12.5 16.8333C12.5 16.8333 19.9123 16.8333 21.7609 16.3348C22.7807 16.0605 23.5839 15.2857 23.8566 14.2592C24.3519 12.3987 24.3519 8.51684 24.3519 8.51684C24.3519 8.51684 24.3519 4.63499 23.8566 2.77444ZM10.0757 12.0413V4.99241L16.271 8.51693L10.0757 12.0413Z" fill="black"/>
</svg>
